{
  "accessors": [
    {
      "bufferView": 2,
      "componentType": 5126,
      "count": 2346,
      "max": [
        5.471384048461914,
        1.0,
        1.0
      ],
      "min": [
        -1.0,
        -1.0,
        -1.0
      ],
      "type": "VEC3"
    },
    {
      "bufferView": 2,
      "byteOffset": 28152,
      "componentType": 5126,
      "count": 2346,
      "max": [
        0.9999616146087646,
        0.9999616146087646,
        1.0
      ],
      "min": [
        -1.0,
        -1.0,
        -1.0
      ],
      "type": "VEC3"
    },
    {
      "bufferView": 1,
      "componentType": 5126,
      "count": 2346,
      "max": [
        0.875,
        1.0
      ],
      "min": [
        0.0,
        0.0
      ],
      "type": "VEC2"
    },
    {
      "bufferView": 0,
      "componentType": 5125,
      "count": 9498,
      "type": "SCALAR"
    },
    {
      "bufferView": 2,
      "byteOffset": 56304,
      "componentType": 5126,
      "count": 350,
      "max": [
        1.0,
        1.0,
        1.0
      ],
      "min": [
        -1.0,
        -1.0,
        -1.0
      ],
      "type": "VEC3"
    },
    {
      "bufferView": 2,
      "byteOffset": 60504,
      "componentType": 5126,
      "count": 350,
      "max": [
        0.9955189228057861,
        0.9955189228057861,
        0.9955189228057861
      ],
      "min": [
        -0.9955189228057861,
        -0.9955189228057861,
        -0.9955189228057861
      ],
      "type": "VEC3"
    },
    {
      "bufferView": 1,
      "byteOffset": 18768,
      "componentType": 5126,
      "count": 350,
      "max": [
        0.875,
        1.0
      ],
      "min": [
        0.125,
        0.0
      ],
      "type": "VEC2"
    },
    {
      "bufferView": 0,
      "byteOffset": 37992,
      "componentType": 5125,
      "count": 1764,
      "type": "SCALAR"
    },
    {
      "bufferView": 2,
      "byteOffset": 64704,
      "componentType": 5126,
      "count": 350,
      "max": [
        1.0,
        1.0,
        1.0
      ],
      "min": [
        -1.0,
        -1.0,
        -1.0
      ],
      "type": "VEC3"
    },
    {
      "bufferView": 2,
      "byteOffset": 68904,
      "componentType": 5126,
      "count": 350,
      "max": [
        0.9955189228057861,
        0.9955189228057861,
        0.9955189228057861
      ],
      "min": [
        -0.9955189228057861,
        -0.9955189228057861,
        -0.9955189228057861
      ],
      "type": "VEC3"
    },
    {
      "bufferView": 1,
      "byteOffset": 21568,
      "componentType": 5126,
      "count": 350,
      "max": [
        0.875,
        1.0
      ],
      "min": [
        0.125,
        0.0
      ],
      "type": "VEC2"
    },
    {
      "bufferView": 0,
      "byteOffset": 45048,
      "componentType": 5125,
      "count": 1764,
      "type": "SCALAR"
    },
    {
      "bufferView": 2,
      "byteOffset": 73104,
      "componentType": 5126,
      "count": 350,
      "max": [
        1.0,
        1.0,
        1.0
      ],
      "min": [
        -1.0,
        -1.0,
        -1.0
      ],
      "type": "VEC3"
    },
    {
      "bufferView": 2,
      "byteOffset": 77304,
      "componentType": 5126,
      "count": 350,
      "max": [
        0.9955189228057861,
        0.9955189228057861,
        0.9955189228057861
      ],
      "min": [
        -0.9955189228057861,
        -0.9955189228057861,
        -0.9955189228057861
      ],
      "type": "VEC3"
    },
    {
      "bufferView": 1,
      "byteOffset": 24368,
      "componentType": 5126,
      "count": 350,
      "max": [
        0.875,
        1.0
      ],
      "min": [
        0.125,
        0.0
      ],
      "type": "VEC2"
    },
    {
      "bufferView": 0,
      "byteOffset": 52104,
      "componentType": 5125,
      "count": 1764,
      "type": "SCALAR"
    },
    {
      "bufferView": 2,
      "byteOffset": 81504,
      "componentType": 5126,
      "count": 35400,
      "max": [
        1.0254665613174438,
        0.18296656012535095,
        1.0208581686019897
      ],
      "min": [
        -1.0254665613174438,
        -0.12301633507013321,
        -1.0208581686019897
      ],
      "type": "VEC3"
    },
    {
      "bufferView": 2,
      "byteOffset": 506304,
      "componentType": 5126,
      "count": 35400,
      "max": [
        0.9991862773895264,
        1.0,
        0.9999524354934692
      ],
      "min": [
        -0.9991862773895264,
        -1.0,
        -0.9999524354934692
      ],
      "type": "VEC3"
    },
    {
      "bufferView": 1,
      "byteOffset": 27168,
      "componentType": 5126,
      "count": 35400,
      "max": [
        1.0000001192092896,
        1.000000238418579
      ],
      "min": [
        0.0,
        0.0
      ],
      "type": "VEC2"
    },
    {
      "bufferView": 0,
      "byteOffset": 59160,
      "componentType": 5125,
      "count": 177408,
      "type": "SCALAR"
    },
    {
      "bufferView": 2,
      "byteOffset": 931104,
      "componentType": 5126,
      "count": 35400,
      "max": [
        1.0254665613174438,
        0.18296656012535095,
        1.0208581686019897
      ],
      "min": [
        -1.0254665613174438,
        -0.12301633507013321,
        -1.0208581686019897
      ],
      "type": "VEC3"
    },
    {
      "bufferView": 2,
      "byteOffset": 1355904,
      "componentType": 5126,
      "count": 35400,
      "max": [
        0.9991862773895264,
        1.0,
        0.9999524354934692
      ],
      "min": [
        -0.9991862773895264,
        -1.0,
        -0.9999524354934692
      ],
      "type": "VEC3"
    },
    {
      "bufferView": 1,
      "byteOffset": 310368,
      "componentType": 5126,
      "count": 35400,
      "max": [
        1.0000001192092896,
        1.000000238418579
      ],
      "min": [
        0.0,
        0.0
      ],
      "type": "VEC2"
    },
    {
      "bufferView": 0,
      "byteOffset": 768792,
      "componentType": 5125,
      "count": 177408,
      "type": "SCALAR"
    },
    {
      "bufferView": 2,
      "byteOffset": 1780704,
      "componentType": 5126,
      "count": 35400,
      "max": [
        1.0254665613174438,
        0.18296656012535095,
        1.0208581686019897
      ],
      "min": [
        -1.0254665613174438,
        -0.12301633507013321,
        -1.0208581686019897
      ],
      "type": "VEC3"
    },
    {
      "bufferView": 2,
      "byteOffset": 2205504,
      "componentType": 5126,
      "count": 35400,
      "max": [
        0.9991862773895264,
        1.0,
        0.9999524354934692
      ],
      "min": [
        -0.9991862773895264,
        -1.0,
        -0.9999524354934692
      ],
      "type": "VEC3"
    },
    {
      "bufferView": 1,
      "byteOffset": 593568,
      "componentType": 5126,
      "count": 35400,
      "max": [
        1.0000001192092896,
        1.000000238418579
      ],
      "min": [
        0.0,
        0.0
      ],
      "type": "VEC2"
    },
    {
      "bufferView": 0,
      "byteOffset": 1478424,
      "componentType": 5125,
      "count": 177408,
      "type": "SCALAR"
    },
    {
      "bufferView": 2,
      "byteOffset": 2630304,
      "componentType": 5126,
      "count": 3013,
      "max": [
        0.9907657504081726,
        1.0,
        0.9906620979309082
      ],
      "min": [
        -0.9907658100128174,
        -1.0,
        -0.9906620979309082
      ],
      "type": "VEC3"
    },
    {
      "bufferView": 2,
      "byteOffset": 2666460,
      "componentType": 5126,
      "count": 3013,
      "max": [
        0.999996542930603,
        0.9948229789733887,
        0.999950647354126
      ],
      "min": [
        -0.999996542930603,
        -0.9963578581809998,
        -0.999950647354126
      ],
      "type": "VEC3"
    },
    {
      "bufferView": 1,
      "byteOffset": 876768,
      "componentType": 5126,
      "count": 3013,
      "max": [
        1.0,
        1.0
      ],
      "min": [
        0.0,
        0.0100126713514328
      ],
      "type": "VEC2"
    },
    {
      "bufferView": 0,
      "byteOffset": 2188056,
      "componentType": 5125,
      "count": 14196,
      "type": "SCALAR"
    },
    {
      "bufferView": 2,
      "byteOffset": 2702616,
      "componentType": 5126,
      "count": 3013,
      "max": [
        0.9907657504081726,
        1.0,
        0.9906620979309082
      ],
      "min": [
        -0.9907658100128174,
        -1.0,
        -0.9906620979309082
      ],
      "type": "VEC3"
    },
    {
      "bufferView": 2,
      "byteOffset": 2738772,
      "componentType": 5126,
      "count": 3013,
      "max": [
        0.999996542930603,
        0.9948229789733887,
        0.999950647354126
      ],
      "min": [
        -0.999996542930603,
        -0.9963578581809998,
        -0.999950647354126
      ],
      "type": "VEC3"
    },
    {
      "bufferView": 1,
      "byteOffset": 900872,
      "componentType": 5126,
      "count": 3013,
      "max": [
        1.0,
        1.0
      ],
      "min": [
        0.0,
        0.0100126713514328
      ],
      "type": "VEC2"
    },
    {
      "bufferView": 0,
      "byteOffset": 2244840,
      "componentType": 5125,
      "count": 14196,
      "type": "SCALAR"
    },
    {
      "bufferView": 2,
      "byteOffset": 2774928,
      "componentType": 5126,
      "count": 3013,
      "max": [
        0.9907657504081726,
        1.0,
        0.9906620979309082
      ],
      "min": [
        -0.9907658100128174,
        -1.0,
        -0.9906620979309082
      ],
      "type": "VEC3"
    },
    {
      "bufferView": 2,
      "byteOffset": 2811084,
      "componentType": 5126,
      "count": 3013,
      "max": [
        0.999996542930603,
        0.9948229789733887,
        0.999950647354126
      ],
      "min": [
        -0.999996542930603,
        -0.9963578581809998,
        -0.999950647354126
      ],
      "type": "VEC3"
    },
    {
      "bufferView": 1,
      "byteOffset": 924976,
      "componentType": 5126,
      "count": 3013,
      "max": [
        1.0,
        1.0
      ],
      "min": [
        0.0,
        0.0100126713514328
      ],
      "type": "VEC2"
    },
    {
      "bufferView": 0,
      "byteOffset": 2301624,
      "componentType": 5125,
      "count": 14196,
      "type": "SCALAR"
    },
    {
      "bufferView": 2,
      "byteOffset": 2847240,
      "componentType": 5126,
      "count": 3013,
      "max": [
        0.9907657504081726,
        1.0,
        0.9906620979309082
      ],
      "min": [
        -0.9907658100128174,
        -1.0,
        -0.9906620979309082
      ],
      "type": "VEC3"
    },
    {
      "bufferView": 2,
      "byteOffset": 2883396,
      "componentType": 5126,
      "count": 3013,
      "max": [
        0.999996542930603,
        0.9948229789733887,
        0.999950647354126
      ],
      "min": [
        -0.999996542930603,
        -0.9963578581809998,
        -0.999950647354126
      ],
      "type": "VEC3"
    },
    {
      "bufferView": 1,
      "byteOffset": 949080,
      "componentType": 5126,
      "count": 3013,
      "max": [
        1.0,
        1.0
      ],
      "min": [
        0.0,
        0.0100126713514328
      ],
      "type": "VEC2"
    },
    {
      "bufferView": 0,
      "byteOffset": 2358408,
      "componentType": 5125,
      "count": 14196,
      "type": "SCALAR"
    }
  ],
  "asset": {
    "extras": {
      "author": "PatelDev (https://sketchfab.com/PatelDev)",
      "license": "CC-BY-4.0 (http://creativecommons.org/licenses/by/4.0/)",
      "source": "https://sketchfab.com/3d-models/sofa-730ea2584380466bb23531752cc3f7bd",
      "title": "Sofa"
    },
    "generator": "Sketchfab-12.68.0",
    "version": "2.0"
  },
  "bufferViews": [
    {
      "buffer": 0,
      "byteLength": 2415192,
      "name": "floatBufferViews",
      "target": 34963
    },
    {
      "buffer": 0,
      "byteLength": 973184,
      "byteOffset": 2415192,
      "byteStride": 8,
      "name": "floatBufferViews",
      "target": 34962
    },
    {
      "buffer": 0,
      "byteLength": 2919552,
      "byteOffset": 3388376,
      "byteStride": 12,
      "name": "floatBufferViews",
      "target": 34962
    }
  ],
  "buffers": [
    {
      "byteLength": 6307928,
      "uri": "scene.bin"
    }
  ],
  "images": [
    {
      "uri": "textures/Material_baseColor.jpeg"
    },
    {
      "uri": "textures/Material.001_baseColor.jpeg"
    },
    {
      "uri": "textures/Material.008_baseColor.jpeg"
    }
  ],
  "materials": [
    {
      "doubleSided": true,
      "name": "Material",
      "pbrMetallicRoughness": {
        "baseColorTexture": {
          "index": 0
        },
        "metallicFactor": 0.0
      }
    },
    {
      "doubleSided": true,
      "name": "Material.005",
      "pbrMetallicRoughness": {
        "baseColorTexture": {
          "index": 0
        },
        "metallicFactor": 0.0
      }
    },
    {
      "doubleSided": true,
      "name": "Material.006",
      "pbrMetallicRoughness": {
        "baseColorTexture": {
          "index": 0
        },
        "metallicFactor": 0.0
      }
    },
    {
      "doubleSided": true,
      "name": "Material.004",
      "pbrMetallicRoughness": {
        "baseColorTexture": {
          "index": 0
        },
        "metallicFactor": 0.0
      }
    },
    {
      "doubleSided": true,
      "name": "Material.001",
      "pbrMetallicRoughness": {
        "baseColorTexture": {
          "index": 1
        },
        "metallicFactor": 0.0
      }
    },
    {
      "doubleSided": true,
      "name": "Material.002",
      "pbrMetallicRoughness": {
        "baseColorTexture": {
          "index": 1
        },
        "metallicFactor": 0.0
      }
    },
    {
      "doubleSided": true,
      "name": "Material.003",
      "pbrMetallicRoughness": {
        "baseColorTexture": {
          "index": 1
        },
        "metallicFactor": 0.0
      }
    },
    {
      "doubleSided": true,
      "name": "Material.008",
      "pbrMetallicRoughness": {
        "baseColorTexture": {
          "index": 2
        },
        "roughnessFactor": 0.19999999999999996
      }
    },
    {
      "doubleSided": true,
      "name": "Material.010",
      "pbrMetallicRoughness": {
        "baseColorTexture": {
          "index": 2
        },
        "roughnessFactor": 0.19999999999999996
      }
    },
    {
      "doubleSided": true,
      "name": "Material.007",
      "pbrMetallicRoughness": {
        "baseColorTexture": {
          "index": 2
        },
        "roughnessFactor": 0.19999999999999996
      }
    },
    {
      "doubleSided": true,
      "name": "Material.009",
      "pbrMetallicRoughness": {
        "baseColorTexture": {
          "index": 2
        },
        "roughnessFactor": 0.19999999999999996
      }
    }
  ],
  "meshes": [
    {
      "name": "Object_0",
      "primitives": [
        {
          "attributes": {
            "NORMAL": 1,
            "POSITION": 0,
            "TEXCOORD_0": 2
          },
          "indices": 3,
          "material": 0,
          "mode": 4
        }
      ]
    },
    {
      "name": "Object_1",
      "primitives": [
        {
          "attributes": {
            "NORMAL": 5,
            "POSITION": 4,
            "TEXCOORD_0": 6
          },
          "indices": 7,
          "material": 1,
          "mode": 4
        }
      ]
    },
    {
      "name": "Object_2",
      "primitives": [
        {
          "attributes": {
            "NORMAL": 9,
            "POSITION": 8,
            "TEXCOORD_0": 10
          },
          "indices": 11,
          "material": 2,
          "mode": 4
        }
      ]
    },
    {
      "name": "Object_3",
      "primitives": [
        {
          "attributes": {
            "NORMAL": 13,
            "POSITION": 12,
            "TEXCOORD_0": 14
          },
          "indices": 15,
          "material": 3,
          "mode": 4
        }
      ]
    },
    {
      "name": "Object_4",
      "primitives": [
        {
          "attributes": {
            "NORMAL": 17,
            "POSITION": 16,
            "TEXCOORD_0": 18
          },
          "indices": 19,
          "material": 4,
          "mode": 4
        }
      ]
    },
    {
      "name": "Object_5",
      "primitives": [
        {
          "attributes": {
            "NORMAL": 21,
            "POSITION": 20,
            "TEXCOORD_0": 22
          },
          "indices": 23,
          "material": 5,
          "mode": 4
        }
      ]
    },
    {
      "name": "Object_6",
      "primitives": [
        {
          "attributes": {
            "NORMAL": 25,
            "POSITION": 24,
            "TEXCOORD_0": 26
          },
          "indices": 27,
          "material": 6,
          "mode": 4
        }
      ]
    },
    {
      "name": "Object_7",
      "primitives": [
        {
          "attributes": {
            "NORMAL": 29,
            "POSITION": 28,
            "TEXCOORD_0": 30
          },
          "indices": 31,
          "material": 7,
          "mode": 4
        }
      ]
    },
    {
      "name": "Object_8",
      "primitives": [
        {
          "attributes": {
            "NORMAL": 33,
            "POSITION": 32,
            "TEXCOORD_0": 34
          },
          "indices": 35,
          "material": 8,
          "mode": 4
        }
      ]
    },
    {
      "name": "Object_9",
      "primitives": [
        {
          "attributes": {
            "NORMAL": 37,
            "POSITION": 36,
            "TEXCOORD_0": 38
          },
          "indices": 39,
          "material": 9,
          "mode": 4
        }
      ]
    },
    {
      "name": "Object_10",
      "primitives": [
        {
          "attributes": {
            "NORMAL": 41,
            "POSITION": 40,
            "TEXCOORD_0": 42
          },
          "indices": 43,
          "material": 10,
          "mode": 4
        }
      ]
    }
  ],
  "nodes": [
    {
      "children": [
        1
      ],
      "matrix": [
        0.9999465346336365,
        -2.2960558910759578e-18,
        0.010340516455471516,
        0.0,
        0.010340516455471516,
        2.2203273322887995e-16,
        -0.9999465346336365,
        0.0,
        0.0,
        1.0,
        2.220446049250313e-16,
        0.0,
        3.305488280602731e-05,
        -0.03941747546195984,
        -0.006395538803190002,
        1.0
      ],
      "name": "Sketchfab_model"
    },
    {
      "children": [
        2
      ],
      "name": "root"
    },
    {
      "children": [
        3,
        5,
        7,
        9,
        11,
        13,
        15,
        17,
        19,
        21,
        23
      ],
      "matrix": [
        1.0,
        0.0,
        0.0,
        0.0,
        0.0,
        2.220446049250313e-16,
        1.0,
        0.0,
        0.0,
        -1.0,
        2.220446049250313e-16,
        0.0,
        0.0,
        0.0,
        0.0,
        1.0
      ],
      "name": "GLTF_SceneRootNode"
    },
    {
      "children": [
        4
      ],
      "matrix": [
        0.5124375224113464,
        0.0,
        0.0,
        0.0,
        0.0,
        1.323032259941101,
        0.0,
        0.0,
        0.0,
        0.0,
        4.084193706512451,
        0.0,
        -0.5272656679153442,
        0.0,
        0.0,
        1.0
      ],
      "name": "Cube_0"
    },
    {
      "mesh": 0,
      "name": "Object_4"
    },
    {
      "children": [
        6
      ],
      "matrix": [
        1.1576594114303589,
        0.0,
        0.0,
        0.0,
        0.0,
        0.37921226024627686,
        0.0,
        0.0,
        0.0,
        0.0,
        1.0813411474227905,
        0.0,
        1.118971586227417,
        -0.04693416506052017,
        -0.009128682315349579,
        1.0
      ],
      "name": "Cube.001_3"
    },
    {
      "mesh": 1,
      "name": "Object_6"
    },
    {
      "children": [
        8
      ],
      "matrix": [
        1.1576594114303589,
        0.0,
        0.0,
        0.0,
        0.0,
        0.37921226024627686,
        0.0,
        0.0,
        0.0,
        0.0,
        1.0559203624725342,
        0.0,
        1.118971586227417,
        -0.04693416506052017,
        -2.1456384658813477,
        1.0
      ],
      "name": "Cube.002_4"
    },
    {
      "mesh": 2,
      "name": "Object_8"
    },
    {
      "children": [
        10
      ],
      "matrix": [
        1.1576594114303589,
        0.0,
        0.0,
        0.0,
        0.0,
        0.37921226024627686,
        0.0,
        0.0,
        0.0,
        0.0,
        1.0559203624725342,
        0.0,
        1.118971586227417,
        -0.04693416506052017,
        2.1432790756225586,
        1.0
      ],
      "name": "Cube.003_5"
    },
    {
      "mesh": 3,
      "name": "Object_10"
    },
    {
      "children": [
        12
      ],
      "matrix": [
        0.2974609300580976,
        -0.7789731725374563,
        -0.0,
        0.0,
        1.1868254354982202,
        0.4532045650685511,
        0.0,
        0.0,
        0.0,
        0.0,
        1.034133791923523,
        0.0,
        0.15133728086948395,
        1.131988763809204,
        -0.0095406174659729,
        1.0
      ],
      "name": "Plane_6"
    },
    {
      "mesh": 4,
      "name": "Object_12"
    },
    {
      "children": [
        14
      ],
      "matrix": [
        0.2974609300580976,
        -0.7789731725374563,
        -0.0,
        0.0,
        1.1868254354982202,
        0.4532045650685511,
        0.0,
        0.0,
        0.0,
        0.0,
        1.034133791923523,
        0.0,
        0.15133728086948395,
        1.131988763809204,
        -2.124986171722412,
        1.0
      ],
      "name": "Plane.001_7"
    },
    {
      "mesh": 5,
      "name": "Object_14"
    },
    {
      "children": [
        16
      ],
      "matrix": [
        0.2974609300580976,
        -0.7789731725374563,
        0.0,
        0.0,
        1.1868254354982202,
        0.4532045650685511,
        0.0,
        0.0,
        0.0,
        0.0,
        1.034133791923523,
        0.0,
        0.15133728086948395,
        1.131988763809204,
        2.1136319637298584,
        1.0
      ],
      "name": "Plane.002_8"
    },
    {
      "mesh": 6,
      "name": "Object_16"
    },
    {
      "children": [
        18
      ],
      "matrix": [
        0.2573055624961853,
        0.0,
        0.0,
        0.0,
        0.0,
        0.3633159399032593,
        0.0,
        0.0,
        0.0,
        0.0,
        0.26328325271606445,
        0.0,
        1.7510815858840942,
        -1.501928448677063,
        3.5567526817321777,
        1.0
      ],
      "name": "Cylinder_9"
    },
    {
      "mesh": 7,
      "name": "Object_18"
    },
    {
      "children": [
        20
      ],
      "matrix": [
        0.2573055624961853,
        0.0,
        0.0,
        0.0,
        0.0,
        0.3633159399032593,
        0.0,
        0.0,
        0.0,
        0.0,
        0.26328325271606445,
        0.0,
        -0.4217696189880371,
        -1.501928448677063,
        3.5567526817321777,
        1.0
      ],
      "name": "Cylinder.001_10"
    },
    {
      "mesh": 8,
      "name": "Object_20"
    },
    {
      "children": [
        22
      ],
      "matrix": [
        0.2573055624961853,
        0.0,
        0.0,
        0.0,
        0.0,
        0.3633159399032593,
        0.0,
        0.0,
        0.0,
        0.0,
        0.26328325271606445,
        0.0,
        1.7510815858840942,
        -1.501928448677063,
        -3.559478282928467,
        1.0
      ],
      "name": "Cylinder.002_11"
    },
    {
      "mesh": 9,
      "name": "Object_22"
    },
    {
      "children": [
        24
      ],
      "matrix": [
        0.2573055624961853,
        0.0,
        0.0,
        0.0,
        0.0,
        0.3633159399032593,
        0.0,
        0.0,
        0.0,
        0.0,
        0.26328325271606445,
        0.0,
        -0.5733613967895508,
        -1.501928448677063,
        -3.524831771850586,
        1.0
      ],
      "name": "Cylinder.003_12"
    },
    {
      "mesh": 10,
      "name": "Object_24"
    }
  ],
  "samplers": [
    {
      "magFilter": 9729,
      "minFilter": 9987,
      "wrapS": 10497,
      "wrapT": 10497
    }
  ],
  "scene": 0,
  "scenes": [
    {
      "name": "Sketchfab_Scene",
      "nodes": [
        0
      ]
    }
  ],
  "textures": [
    {
      "sampler": 0,
      "source": 0
    },
    {
      "sampler": 0,
      "source": 1
    },
    {
      "sampler": 0,
      "source": 2
    }
  ]
}
