<svg width="44" height="44" viewBox="0 0 44 44" fill="none" xmlns="http://www.w3.org/2000/svg">
<rect x="0.5" y="0.5" width="43" height="43" rx="21.5" stroke="black"/>
<path d="M25.332 17.7891C25.2162 17.7891 25.1138 17.8036 25.0371 17.8438C24.9973 17.8646 24.9615 17.8934 24.9365 17.9326C24.9113 17.9723 24.9004 18.017 24.9004 18.0625C24.9004 18.0812 24.9044 18.1046 24.9082 18.124C24.9125 18.1461 24.9188 18.174 24.9268 18.207C24.943 18.274 24.9672 18.3663 24.999 18.4824L25 18.4814C25.3053 19.691 25.9729 20.7254 26.999 21.585H15.2109L15.1895 21.5967C15.0142 21.6892 14.8994 21.8217 14.8994 22C14.8995 22.1783 15.0142 22.3108 15.1895 22.4033L15.2109 22.415H26.9932C25.9879 23.2384 25.323 24.2728 25 25.5166H24.999C24.9672 25.6328 24.943 25.725 24.9268 25.792C24.9187 25.8254 24.9126 25.8537 24.9082 25.876C24.9044 25.8954 24.9004 25.9188 24.9004 25.9375C24.9004 25.9828 24.9115 26.0269 24.9365 26.0664C24.9615 26.1057 24.9973 26.1353 25.0371 26.1562C25.1138 26.1964 25.2162 26.2109 25.332 26.2109C25.3971 26.2109 25.4543 26.2079 25.502 26.2002C25.5247 26.1965 25.548 26.1911 25.5703 26.1836L25.6318 26.1533C25.6716 26.1253 25.6981 26.0838 25.7158 26.043C25.733 26.0034 25.7455 25.9558 25.7559 25.9033L25.8223 25.6299L25.8994 25.3525C26.0971 24.7144 26.423 24.139 26.877 23.625V23.624C27.3328 23.1121 27.8687 22.7133 28.4854 22.4277L28.7549 22.3125C28.8364 22.2797 28.9053 22.2469 28.959 22.2139C29.0103 22.1822 29.0581 22.1435 29.0859 22.0957L29.0996 22.0732V22.0459C29.0996 21.9521 29.0662 21.8689 28.998 21.8047C28.9354 21.7457 28.8497 21.7077 28.751 21.6846C28.0214 21.3951 27.397 20.9592 26.877 20.375L26.6895 20.1514C26.2722 19.6198 25.9834 19.026 25.8223 18.3701L25.8203 18.3623L25.791 18.2354C25.7802 18.1725 25.7722 18.1288 25.7676 18.1055L25.7656 18.0928H25.7646C25.7578 18.0724 25.7466 18.0404 25.7314 17.9971L25.7305 17.9951L25.6953 17.9229C25.6812 17.9013 25.6638 17.882 25.6426 17.8662V17.8652H25.6416C25.6405 17.8644 25.6398 17.8631 25.6387 17.8623V17.8633C25.6038 17.8373 25.5596 17.8204 25.5146 17.8086L25.5137 17.8076L25.4277 17.793C25.3974 17.7898 25.3654 17.7891 25.332 17.7891Z" fill="black" stroke="black" stroke-width="0.2"/>
</svg>
