{
  "accessors": [
    {
      "bufferView": 2,
      "componentType": 5126,
      "count": 24,
      "max": [
        7.636272430419922,
        7.636272430419922,
        0.0
      ],
      "min": [
        -7.636272430419922,
        -7.636272430419922,
        -0.21964026987552643
      ],
      "type": "VEC3"
    },
    {
      "bufferView": 2,
      "byteOffset": 288,
      "componentType": 5126,
      "count": 24,
      "max": [
        1.0,
        1.0,
        1.0
      ],
      "min": [
        -1.0,
        -1.0,
        -1.0
      ],
      "type": "VEC3"
    },
    {
      "bufferView": 0,
      "componentType": 5125,
      "count": 36,
      "type": "SCALAR"
    },
    {
      "bufferView": 2,
      "byteOffset": 576,
      "componentType": 5126,
      "count": 8969,
      "max": [
        1.2060922384262085,
        0.5112830400466919,
        0.6159656643867493
      ],
      "min": [
        -1.2090322971343994,
        -1.6018478870391846,
        -0.32575276494026184
      ],
      "type": "VEC3"
    },
    {
      "bufferView": 2,
      "byteOffset": 108204,
      "componentType": 5126,
      "count": 8969,
      "max": [
        0.9999958276748657,
        1.0,
        1.0
      ],
      "min": [
        -0.9999964237213135,
        -1.0,
        -1.0
      ],
      "type": "VEC3"
    },
    {
      "bufferView": 3,
      "componentType": 5126,
      "count": 8969,
      "max": [
        1.0,
        0.9999845623970032,
        1.0,
        1.0
      ],
      "min": [
        -0.9992016553878784,
        -0.9999599456787109,
        -1.0,
        -1.0
      ],
      "type": "VEC4"
    },
    {
      "bufferView": 1,
      "componentType": 5126,
      "count": 8969,
      "max": [
        0.979258120059967,
        0.9923403263092041
      ],
      "min": [
        0.012487530708312988,
        0.012193769216537476
      ],
      "type": "VEC2"
    },
    {
      "bufferView": 0,
      "byteOffset": 144,
      "componentType": 5125,
      "count": 49050,
      "type": "SCALAR"
    }
  ],
  "asset": {
    "extras": {
      "author": "ferofluid (https://sketchfab.com/ferofluid)",
      "license": "CC-BY-4.0 (http://creativecommons.org/licenses/by/4.0/)",
      "source": "https://sketchfab.com/3d-models/painted-style-modern-sofa-a6ddbb309cba4cc89d46d6fd660ab2da",
      "title": "Painted Style Modern Sofa"
    },
    "generator": "Sketchfab-12.64.0",
    "version": "2.0"
  },
  "bufferViews": [
    {
      "buffer": 0,
      "byteLength": 196344,
      "name": "floatBufferViews",
      "target": 34963
    },
    {
      "buffer": 0,
      "byteLength": 71752,
      "byteOffset": 196344,
      "byteStride": 8,
      "name": "floatBufferViews",
      "target": 34962
    },
    {
      "buffer": 0,
      "byteLength": 215832,
      "byteOffset": 268096,
      "byteStride": 12,
      "name": "floatBufferViews",
      "target": 34962
    },
    {
      "buffer": 0,
      "byteLength": 143504,
      "byteOffset": 483928,
      "byteStride": 16,
      "name": "floatBufferViews",
      "target": 34962
    }
  ],
  "buffers": [
    {
      "byteLength": 627432,
      "uri": "scene.bin"
    }
  ],
  "images": [
    {
      "uri": "textures/Material.001_baseColor.jpeg"
    },
    {
      "uri": "textures/Material.001_metallicRoughness.png"
    },
    {
      "uri": "textures/Material.001_normal.png"
    }
  ],
  "materials": [
    {
      "doubleSided": true,
      "name": "floor",
      "pbrMetallicRoughness": {
        "baseColorFactor": [
          0.05729783433459911,
          0.03264788347712179,
          0.03264788347712179,
          1.0
        ],
        "metallicFactor": 0.0,
        "roughnessFactor": 0.8239417257
      }
    },
    {
      "doubleSided": true,
      "name": "Material.001",
      "normalTexture": {
        "index": 2
      },
      "pbrMetallicRoughness": {
        "baseColorTexture": {
          "index": 0
        },
        "metallicRoughnessTexture": {
          "index": 1
        },
        "roughnessFactor": 0.5992662921641607
      }
    }
  ],
  "meshes": [
    {
      "name": "Plane_floor_0",
      "primitives": [
        {
          "attributes": {
            "NORMAL": 1,
            "POSITION": 0
          },
          "indices": 2,
          "material": 0,
          "mode": 4
        }
      ]
    },
    {
      "name": "sofa_lopo_Material.001_0",
      "primitives": [
        {
          "attributes": {
            "NORMAL": 4,
            "POSITION": 3,
            "TANGENT": 5,
            "TEXCOORD_0": 6
          },
          "indices": 7,
          "material": 1,
          "mode": 4
        }
      ]
    }
  ],
  "nodes": [
    {
      "children": [
        1
      ],
      "matrix": [
        0.00226400175976188,
        1.826639412293607e-21,
        0.0006402448020051271,
        0.0,
        0.0006402448020051271,
        4.532842165266459e-19,
        -0.00226400175976188,
        0.0,
        -1.251061319674804e-19,
        0.0023527892772108316,
        4.356815014939728e-19,
        0.0,
        0.0003301883989479393,
        -6.862224836368123e-05,
        0.0004359364102128893,
        1.0
      ],
      "name": "Sketchfab_model"
    },
    {
      "children": [
        2
      ],
      "matrix": [
        1.0,
        0.0,
        0.0,
        0.0,
        0.0,
        0.0,
        1.0,
        0.0,
        0.0,
        -1.0,
        0.0,
        0.0,
        0.0,
        0.0,
        0.0,
        1.0
      ],
      "name": "807f720f23514654af3c8c6bafb1de5c.fbx"
    },
    {
      "children": [
        3,
        5
      ],
      "name": "RootNode"
    },
    {
      "children": [
        4
      ],
      "matrix": [
        100.0,
        0.0,
        0.0,
        0.0,
        0.0,
        -1.629206793918314e-05,
        -99.99999999999868,
        0.0,
        0.0,
        99.99999999999868,
        -1.629206793918314e-05,
        0.0,
        0.0,
        2.3968677520751953,
        0.0,
        1.0
      ],
      "name": "Plane"
    },
    {
      "mesh": 0,
      "name": "Plane_floor_0"
    },
    {
      "children": [
        6
      ],
      "matrix": [
        432.564453125,
        0.0,
        0.0,
        0.0,
        0.0,
        -7.047369458388101e-05,
        -432.56445312499426,
        0.0,
        0.0,
        432.56445312499426,
        -7.047369458388101e-05,
        0.0,
        97.12789154052734,
        143.62339782714844,
        -96.02477264404297,
        1.0
      ],
      "name": "sofa_lopo"
    },
    {
      "mesh": 1,
      "name": "sofa_lopo_Material.001_0"
    }
  ],
  "samplers": [
    {
      "magFilter": 9729,
      "minFilter": 9987,
      "wrapS": 10497,
      "wrapT": 10497
    }
  ],
  "scene": 0,
  "scenes": [
    {
      "name": "Sketchfab_Scene",
      "nodes": [
        0
      ]
    }
  ],
  "textures": [
    {
      "sampler": 0,
      "source": 0
    },
    {
      "sampler": 0,
      "source": 1
    },
    {
      "sampler": 0,
      "source": 2
    }
  ]
}
