<svg width="151" height="162" viewBox="0 0 151 162" fill="none" xmlns="http://www.w3.org/2000/svg">
<path d="M156.465 162.012C176.248 122.577 188.933 137.759 251.963 109.169C283.643 115.544 296.788 108.446 308.29 101.676C307.172 98.5217 305.924 95.3669 304.543 92.1464C298.562 97.0757 287.192 102.399 266.949 100.756C273.981 95.2354 278.385 87.4799 280.422 83.4049C283.38 77.4897 284.957 70.72 286.798 61.7814C283.511 57.4436 279.436 52.5799 274.507 47.5191C274.31 58.298 272.141 73.2833 265.503 82.4191C261.033 88.5315 250.255 98.7846 230.471 103.911C197.872 112.39 175.328 114.23 175.328 114.23C202.801 97.0757 218.904 76.3724 223.439 68.0253C225.542 64.1475 227.054 61.0585 228.368 57.3121C243.156 51.857 252.818 43.1156 259.325 33.7826C256.367 31.4165 253.212 29.1161 249.926 26.8815C247.1 31.2851 243.156 38.1862 231.852 43.1156C233.626 33.3225 233.495 25.6984 233.889 17.2857C228.96 14.7881 224.096 12.5535 219.232 10.6474C220.941 32.4681 216.932 55.7347 204.247 69.8656C190.708 84.9166 169.347 95.6298 155.545 100.559C155.545 100.559 155.282 78.6727 145.16 60.7298C146.935 45.153 151.733 30.8907 168.427 23.4638C178.22 19.126 182.229 17.3514 184.464 1.51167C179.337 0.722974 175.657 0.328625 170.859 0C170.202 13.2107 164.418 9.85874 149.958 20.7691C142.729 26.2242 136.485 33.8483 135.17 43.1156C133.133 40.4208 118.213 23.1352 125.246 2.30037C125.18 2.30037 125.114 2.30037 125.049 2.30037C120.842 2.95762 116.899 3.48342 111.049 4.66647C109.866 13.0793 109.932 19.6518 110.983 25.3698C99.2844 21.8207 94.0264 14.1309 92.449 9.13576C88.9656 10.1874 85.3507 11.3704 81.6701 12.7506C85.8765 23.5953 94.0921 33.3883 115.058 39.1063C131.818 60.204 142.663 82.7477 134.842 109.563L130.438 114.493C127.02 110.549 122.88 106.343 118.673 103.385C114.664 100.559 105.2 93.9867 95.2751 92.0806C93.8292 86.8884 90.1486 69.8656 68.1965 55.3404C61.9526 51.1997 53.2769 40.5523 52.7511 27.4073C49.9249 29.2476 47.1645 31.1536 44.404 33.2568C44.9955 38.4491 45.39 42.524 49.202 48.1764C41.4465 48.8993 37.5687 47.1248 31.8506 43.97C29.3531 46.3361 26.987 48.7679 24.7523 51.2654C28.5644 53.6973 33.0994 55.7347 35.8598 56.4577C43.2868 58.298 49.4649 58.2323 54.5257 57.115C68.8537 67.1052 78.1209 77.6869 79.0411 92.0806C79.0411 92.0806 64.713 94.0524 59.7179 94.6439C44.6012 96.4842 21.006 93.5923 5.03484 78.8699C3.26027 82.1562 1.61714 85.3767 0.105469 88.6629C18.2456 106.934 47.4274 106.54 50.3193 106.409C76.4778 105.291 104.542 96.9443 119.265 129.215C114.993 136.708 108.88 149.261 105.791 164.181C118.673 163.195 131.621 162.209 144.503 162.012C148.512 162.012 152.522 162.012 156.465 162.012Z" fill="white"/>
</svg>
