{
  "accessors": [
    {
      "bufferView": 0,
      "componentType": 5125,
      "count": 134046,
      "max": [
        29309
      ],
      "min": [
        0
      ],
      "type": "SCALAR"
    },
    {
      "bufferView": 1,
      "componentType": 5126,
      "count": 29310,
      "max": [
        1000.0762939453125,
        415.8228759765625,
        287.3934631347656
      ],
      "min": [
        -1000.0762939453125,
        -415.8228759765625,
        -287.39349365234375
      ],
      "type": "VEC3"
    },
    {
      "bufferView": 2,
      "componentType": 5126,
      "count": 29310,
      "max": [
        1,
        1,
        1
      ],
      "min": [
        -1,
        -1,
        -1
      ],
      "type": "VEC3"
    },
    {
      "bufferView": 3,
      "componentType": 5126,
      "count": 29310,
      "max": [
        5.500381946563721,
        2.5139074325561523
      ],
      "min": [
        -4.500380992889404,
        -1.567784070968628
      ],
      "type": "VEC2"
    },
    {
      "bufferView": 4,
      "componentType": 5125,
      "count": 127680,
      "max": [
        85107
      ],
      "min": [
        0
      ],
      "type": "SCALAR"
    },
    {
      "bufferView": 5,
      "componentType": 5126,
      "count": 85120,
      "max": [
        971.428466796875,
        724.9500122070312,
        465.0000305175781
      ],
      "min": [
        -971.428466796875,
        -33.85527801513672,
        -95
      ],
      "type": "VEC3"
    },
    {
      "bufferView": 6,
      "componentType": 5126,
      "count": 85120,
      "max": [
        1,
        1,
        1
      ],
      "min": [
        -1,
        -1,
        -1
      ],
      "type": "VEC3"
    },
    {
      "bufferView": 7,
      "componentType": 5126,
      "count": 85120,
      "max": [
        5.356636047363281,
        2.474813938140869
      ],
      "min": [
        -4.3566365242004395,
        -1.3183462619781494
      ],
      "type": "VEC2"
    }
  ],
  "asset": {
    "generator": "SimLab GLTF",
    "version": "2.0"
  },
  "bufferViews": [
    {
      "buffer": 0,
      "byteLength": 536184,
      "target": 34963
    },
    {
      "buffer": 0,
      "byteLength": 351720,
      "byteOffset": 536184,
      "byteStride": 12,
      "target": 34962
    },
    {
      "buffer": 0,
      "byteLength": 351720,
      "byteOffset": 887904,
      "byteStride": 12,
      "target": 34962
    },
    {
      "buffer": 0,
      "byteLength": 234480,
      "byteOffset": 1239624,
      "byteStride": 8,
      "target": 34962
    },
    {
      "buffer": 0,
      "byteLength": 510720,
      "byteOffset": 1474104,
      "target": 34963
    },
    {
      "buffer": 0,
      "byteLength": 1021440,
      "byteOffset": 1984824,
      "byteStride": 12,
      "target": 34962
    },
    {
      "buffer": 0,
      "byteLength": 1021440,
      "byteOffset": 3006264,
      "byteStride": 12,
      "target": 34962
    },
    {
      "buffer": 0,
      "byteLength": 680960,
      "byteOffset": 4027704,
      "byteStride": 8,
      "target": 34962
    }
  ],
  "buffers": [
    {
      "byteLength": 4708664,
      "uri": "STACK - UP.bin"
    }
  ],
  "extensionsUsed": [
    "KHR_materials_pbrSpecularGlossiness"
  ],
  "images": [
    {
      "mimeType": "image/jpeg",
      "uri": "Textures/0cf016ca9aa24e7495bb9e2f22a4f836.jpg"
    },
    {
      "mimeType": "image/jpeg",
      "uri": "Textures/7a6a9ed0419ce31d3498758808fe3188.jpg"
    }
  ],
  "materials": [
    {
      "extensions": {
        "KHR_materials_pbrSpecularGlossiness": {
          "diffuseFactor": [
            0.5882353186607361,
            0.5882353186607361,
            0.5882353186607361,
            1
          ],
          "diffuseTexture": {
            "index": 0
          },
          "specularFactor": [
            0,
            0,
            0
          ],
          "glossinessFactor": 0.019999980926513672
        }
      },
      "name": "01 - Default",
      "alphaMode": "MASK",
      "doubleSided": true,
      "pbrMetallicRoughness": {
        "baseColorFactor": [
          0.5882353186607361,
          0.5882353186607361,
          0.5882353186607361,
          1
        ],
        "baseColorTexture": {
          "index": 0
        },
        "metallicFactor": 0
      }
    },
    {
      "extensions": {
        "KHR_materials_pbrSpecularGlossiness": {
          "diffuseFactor": [
            0.5882353186607361,
            0.5882353186607361,
            0.5882353186607361,
            1
          ],
          "diffuseTexture": {
            "index": 1
          },
          "specularFactor": [
            0,
            0,
            0
          ],
          "glossinessFactor": 0.019999980926513672
        }
      },
      "name": "02 - Default",
      "alphaMode": "MASK",
      "doubleSided": true,
      "pbrMetallicRoughness": {
        "baseColorFactor": [
          0.5882353186607361,
          0.5882353186607361,
          0.5882353186607361,
          1
        ],
        "baseColorTexture": {
          "index": 1
        },
        "metallicFactor": 0
      }
    }
  ],
  "meshes": [
    {
      "primitives": [
        {
          "attributes": {
            "NORMAL": 2,
            "POSITION": 1,
            "TEXCOORD_0": 3
          },
          "indices": 0,
          "material": 0,
          "mode": 4
        }
      ]
    },
    {
      "primitives": [
        {
          "attributes": {
            "NORMAL": 6,
            "POSITION": 5,
            "TEXCOORD_0": 7
          },
          "indices": 4,
          "material": 1,
          "mode": 4
        }
      ]
    }
  ],
  "nodes": [
    {
      "children": [
        1
      ],
      "matrix": [
        1,
        0,
        0,
        0,
        0,
        4.4896593387466766e-11,
        -1,
        0,
        0,
        1,
        4.4896593387466766e-11,
        0,
        0,
        0,
        0,
        1
      ]
    },
    {
      "name": "Assembly-2",
      "children": [
        2
      ],
      "rotation": [
        0,
        0,
        0,
        -1
      ]
    },
    {
      "name": "STACK - UP",
      "children": [
        3
      ],
      "rotation": [
        0,
        0,
        0,
        -1
      ]
    },
    {
      "name": "Assembly-10",
      "children": [
        4,
        9
      ],
      "rotation": [
        0,
        0,
        0,
        -1
      ],
      "scale": [
        0.0010000000474974513,
        0.0010000000474974513,
        0.0010000000474974513
      ]
    },
    {
      "name": "Group004",
      "children": [
        5,
        7,
        8
      ],
      "rotation": [
        -3.0616171314629196e-17,
        0,
        0,
        -1
      ],
      "translation": [
        0,
        0,
        436.35009765625
      ]
    },
    {
      "name": "Object001",
      "children": [
        6
      ],
      "rotation": [
        0,
        0,
        0,
        -1
      ],
      "translation": [
        0,
        -5.5446929931640625,
        -436.35009765625
      ]
    },
    {
      "name": "Assembly-3",
      "rotation": [
        0,
        0,
        0,
        -1
      ],
      "translation": [
        0,
        -69.44743347167969,
        100.00003051757812
      ]
    },
    {
      "name": "Box013",
      "rotation": [
        0,
        0,
        0,
        -1
      ],
      "translation": [
        0.6982421875,
        -83.58110046386719,
        -342.5171813964844
      ]
    },
    {
      "name": "3DGeom-1",
      "mesh": 0,
      "rotation": [
        0,
        0,
        0,
        -1
      ]
    },
    {
      "name": "Group003",
      "children": [
        10
      ],
      "rotation": [
        -3.0616171314629196e-17,
        0,
        0,
        -1
      ],
      "translation": [
        0,
        -15.63238525390625,
        280
      ]
    },
    {
      "name": "Box009",
      "children": [
        11
      ],
      "rotation": [
        0,
        0,
        0,
        -1
      ],
      "translation": [
        0,
        0.085693359375,
        -280
      ]
    },
    {
      "name": "Assembly-9",
      "children": [
        12
      ],
      "rotation": [
        0,
        0,
        0,
        -1
      ],
      "translation": [
        0,
        -345.633056640625,
        95
      ]
    },
    {
      "name": "Box009",
      "mesh": 1,
      "rotation": [
        0,
        0,
        0,
        -1
      ]
    }
  ],
  "scene": 0,
  "scenes": [
    {
      "nodes": [
        0
      ]
    }
  ],
  "textures": [
    {
      "source": 0
    },
    {
      "source": 1
    }
  ]
}