<svg width="29" height="31" viewBox="0 0 29 31" fill="none" xmlns="http://www.w3.org/2000/svg">
<path d="M1.90685 3.99079H27.0932C28.126 3.99079 29 3.07623 29 1.99539C29 0.914556 28.126 0 27.0932 0H1.90685C0.873974 0 0 0.914556 0 1.99539C0 3.07623 0.794522 3.99079 1.90685 3.99079ZM27.0137 26.2727H1.90685C0.873974 26.2727 0 27.1872 0 28.2681C0 29.3489 0.873974 30.2635 1.90685 30.2635H27.0932C28.126 30.2635 29 29.3489 29 28.2681C29 27.1872 28.126 26.2727 27.0137 26.2727ZM27.0137 13.1363H1.90685C0.873974 13.1363 0 14.0509 0 15.1317C0 16.2126 0.873974 17.1271 1.90685 17.1271H27.0932C28.126 17.1271 29 16.2126 29 15.1317C29 14.0509 28.126 13.1363 27.0137 13.1363Z" fill="#151C0A"/>
</svg>
